<svg width="10" height="11" viewBox="0 0 10 11" fill="none" xmlns="http://www.w3.org/2000/svg">
<path d="M8.57703 1.57743L3.33286 6.8216L1.42203 4.91077C1.26486 4.75897 1.05436 4.67497 0.835858 4.67687C0.617361 4.67877 0.40835 4.76641 0.253843 4.92092C0.0993366 5.07542 0.0116958 5.28443 0.00979713 5.50293C0.00789844 5.72143 0.0918938 5.93193 0.243692 6.0891L2.74369 8.5891C2.89997 8.74532 3.11189 8.83309 3.33286 8.83309C3.55383 8.83309 3.76575 8.74532 3.92203 8.5891L9.75536 2.75577C9.90716 2.5986 9.99115 2.3881 9.98925 2.1696C9.98736 1.9511 9.89971 1.74209 9.74521 1.58758C9.5907 1.43308 9.38169 1.34544 9.16319 1.34354C8.9447 1.34164 8.73419 1.42563 8.57703 1.57743Z" fill="#F3F4F6"/>
</svg>
